<?xml version="1.0" encoding="UTF-8" ?>
<svg width="246pt" height="622pt" viewBox="0.00 0.00 246.00 622.40" xmlns="http://www.w3.org/2000/svg" xmlns:xlink="http://www.w3.org/1999/xlink">
<g id="graph0" class="graph" transform="scale(1 1) rotate(0) translate(4 618.4)">
<title>lightmapping</title>
<polygon fill="#ffffff" stroke="transparent" points="-4,4 -4,-618.4 242,-618.4 242,4 -4,4"/>
<g id="clust1" class="cluster">
<title>cluster_blender</title>
<polygon fill="none" stroke="#000000" points="8,-457.6 8,-606.4 230,-606.4 230,-457.6 8,-457.6"/>
<text text-anchor="middle" x="119" y="-589.8" font-family="Times,serif" font-size="14.00" fill="#000000">Blender</text>
</g>
<g id="clust2" class="cluster">
<title>cluster_lightmapper</title>
<polygon fill="none" stroke="#000000" points="9,-8 9,-449.6 229,-449.6 229,-8 9,-8"/>
<text text-anchor="middle" x="119" y="-433" font-family="Times,serif" font-size="14.00" fill="#000000">Lightmapper</text>
</g>
<g id="clust3" class="cluster">
<title>cluster_gpu</title>
<polygon fill="none" stroke="#000000" points="17,-152 17,-372.8 221,-372.8 221,-152 17,-152"/>
<text text-anchor="middle" x="119" y="-356.2" font-family="Times,serif" font-size="14.00" fill="#000000">GPU Work</text>
</g>
<!-- Generate lightmap UVs -->
<g id="node1" class="node">
<title>Generate lightmap UVs</title>
<ellipse fill="none" stroke="#000000" cx="119" cy="-555.6" rx="102.9879" ry="18"/>
<text text-anchor="middle" x="119" y="-551.4" font-family="Times,serif" font-size="14.00" fill="#000000">Generate lightmap UVs</text>
</g>
<!-- Export to glTF -->
<g id="node2" class="node">
<title>Export to glTF</title>
<ellipse fill="none" stroke="#000000" cx="119" cy="-483.6" rx="68.3806" ry="18"/>
<text text-anchor="middle" x="119" y="-479.4" font-family="Times,serif" font-size="14.00" fill="#000000">Export to glTF</text>
</g>
<!-- Generate lightmap UVs&#45;&gt;Export to glTF -->
<g id="edge1" class="edge">
<title>Generate lightmap UVs-&gt;Export to glTF</title>
<path fill="none" stroke="#000000" d="M119,-537.4314C119,-529.731 119,-520.5743 119,-512.0166"/>
<polygon fill="#000000" stroke="#000000" points="122.5001,-512.0132 119,-502.0133 115.5001,-512.0133 122.5001,-512.0132"/>
</g>
<!-- load data -->
<g id="node3" class="node">
<title>load data</title>
<ellipse fill="none" stroke="#000000" cx="119" cy="-398.8" rx="46.3279" ry="18"/>
<text text-anchor="middle" x="119" y="-394.6" font-family="Times,serif" font-size="14.00" fill="#000000">load data</text>
</g>
<!-- Export to glTF&#45;&gt;load data -->
<g id="edge2" class="edge">
<title>Export to glTF-&gt;load data</title>
<path fill="none" stroke="#000000" d="M119,-465.1997C119,-454.0112 119,-439.4983 119,-426.8954"/>
<polygon fill="#000000" stroke="#000000" points="122.5001,-426.8731 119,-416.8731 115.5001,-426.8731 122.5001,-426.8731"/>
</g>
<!-- rasterize in UV space -->
<g id="node4" class="node">
<title>rasterize in UV space</title>
<ellipse fill="none" stroke="#000000" cx="119" cy="-322" rx="93.7554" ry="18"/>
<text text-anchor="middle" x="119" y="-317.8" font-family="Times,serif" font-size="14.00" fill="#000000">rasterize in UV space</text>
</g>
<!-- load data&#45;&gt;rasterize in UV space -->
<g id="edge3" class="edge">
<title>load data-&gt;rasterize in UV space</title>
<path fill="none" stroke="#000000" d="M119,-380.5995C119,-371.5132 119,-360.3176 119,-350.1549"/>
<polygon fill="#000000" stroke="#000000" points="122.5001,-350.0698 119,-340.0699 115.5001,-350.0699 122.5001,-350.0698"/>
</g>
<!-- lightmap -->
<g id="node5" class="node">
<title>lightmap</title>
<ellipse fill="none" stroke="#000000" cx="119" cy="-250" rx="45.2439" ry="18"/>
<text text-anchor="middle" x="119" y="-245.8" font-family="Times,serif" font-size="14.00" fill="#000000">lightmap</text>
</g>
<!-- rasterize in UV space&#45;&gt;lightmap -->
<g id="edge4" class="edge">
<title>rasterize in UV space-&gt;lightmap</title>
<path fill="none" stroke="#000000" d="M119,-303.8314C119,-296.131 119,-286.9743 119,-278.4166"/>
<polygon fill="#000000" stroke="#000000" points="122.5001,-278.4132 119,-268.4133 115.5001,-278.4133 122.5001,-278.4132"/>
</g>
<!-- dilate -->
<g id="node6" class="node">
<title>dilate</title>
<ellipse fill="none" stroke="#000000" cx="119" cy="-178" rx="32.4788" ry="18"/>
<text text-anchor="middle" x="119" y="-173.8" font-family="Times,serif" font-size="14.00" fill="#000000">dilate</text>
</g>
<!-- lightmap&#45;&gt;dilate -->
<g id="edge5" class="edge">
<title>lightmap-&gt;dilate</title>
<path fill="none" stroke="#000000" d="M119,-231.8314C119,-224.131 119,-214.9743 119,-206.4166"/>
<polygon fill="#000000" stroke="#000000" points="122.5001,-206.4132 119,-196.4133 115.5001,-206.4133 122.5001,-206.4132"/>
</g>
<!-- post process -->
<g id="node7" class="node">
<title>post process</title>
<ellipse fill="none" stroke="#000000" cx="119" cy="-106" rx="58.5066" ry="18"/>
<text text-anchor="middle" x="119" y="-101.8" font-family="Times,serif" font-size="14.00" fill="#000000">post process</text>
</g>
<!-- dilate&#45;&gt;post process -->
<g id="edge6" class="edge">
<title>dilate-&gt;post process</title>
<path fill="none" stroke="#000000" d="M119,-159.8314C119,-152.131 119,-142.9743 119,-134.4166"/>
<polygon fill="#000000" stroke="#000000" points="122.5001,-134.4132 119,-124.4133 115.5001,-134.4133 122.5001,-134.4132"/>
</g>
<!-- write to file -->
<g id="node8" class="node">
<title>write to file</title>
<ellipse fill="none" stroke="#000000" cx="119" cy="-34" rx="56.1724" ry="18"/>
<text text-anchor="middle" x="119" y="-29.8" font-family="Times,serif" font-size="14.00" fill="#000000">write to file</text>
</g>
<!-- post process&#45;&gt;write to file -->
<g id="edge7" class="edge">
<title>post process-&gt;write to file</title>
<path fill="none" stroke="#000000" d="M119,-87.8314C119,-80.131 119,-70.9743 119,-62.4166"/>
<polygon fill="#000000" stroke="#000000" points="122.5001,-62.4132 119,-52.4133 115.5001,-62.4133 122.5001,-62.4132"/>
</g>
</g>
</svg>